<svg version="1.2" xmlns="http://www.w3.org/2000/svg" viewBox="170 165 684 694" width="32" height="32"><defs><clipPath id="r"><rect x="170" y="165" width="684" height="694" rx="153" ry="155"/></clipPath></defs><style>.a{fill:#01030e}.b{fill:#fd015a}</style><g clip-path="url(#r)"><path class="a" d="m0 512v512h1024v-1024h-1024z"/><path class="b" d="m485.5 208.1c-4.9 0.5-13.5 1.6-19 2.4-5.5 0.9-16.1 3-23.5 4.7-7.4 1.7-19.1 4.9-26 7.3-6.9 2.3-16.6 5.9-21.5 7.9-4.9 2.1-15.5 7.1-23.5 11.3-8 4.1-17.5 9.5-21.3 11.9l-6.7 4.4c-8.1-3.7-13.2-5.6-16.5-6.6-3.8-1.2-9.1-1.8-14.5-1.8-5.1 0-10.9 0.7-14.5 1.8-3.3 1-9.1 3.4-13 5.4-4.1 2.2-9.6 6.4-13.5 10.2-4.4 4.4-7.9 9.1-10.7 14.5-2.4 4.8-4.8 11.1-5.7 15.7-0.9 4.3-1.6 9.4-1.6 11.3 0 1.9 0.7 7 1.6 11.2 0.9 4.3 2.9 10.6 4.5 14l2.9 6.3c-3.7 5-7.6 11.4-11.1 17.5-3.5 6-9 16.8-12.2 24-3.2 7.1-8 19.5-10.7 27.5-2.7 8-6.2 20.8-7.9 28.5-1.7 7.7-3.8 19.2-4.6 25.5-0.9 6.3-1.9 19.4-2.2 29-0.3 10.1-0.1 23.4 0.6 31.5 0.6 7.7 2.1 19.4 3.2 26 1.1 6.6 2.7 14.9 3.5 18.5 0.8 3.6 3.1 11.9 5.1 18.5 1.9 6.6 5.8 17.6 8.5 24.5 2.8 6.9 7.3 17 10.1 22.5 2.7 5.5 6.8 13.1 9 17 2.2 3.9 6.1 10.1 8.6 14 2.5 3.9 7 10.4 10 14.5 3 4.1 8.9 11.5 13.1 16.5 4.3 5 12.6 13.7 18.6 19.5 6 5.8 14.7 13.5 19.4 17.3 4.7 3.7 12.8 9.7 18 13.3 5.2 3.7 13.5 9 18.5 11.9 4.9 2.9 14.4 8 21 11.3 6.6 3.2 16 7.5 21 9.5 4.9 1.9 13.3 4.9 18.5 6.6 5.2 1.7 14 4.2 19.5 5.6 5.5 1.4 15.2 3.4 21.5 4.5 6.3 1.1 15.8 2.4 21 3 5.2 0.6 18.5 1.1 29.5 1.1 11 0 24.5-0.5 30-1.1 5.5-0.6 15.2-2 21.5-3.1 6.3-1.1 16.5-3.3 22.5-4.9 6-1.6 15.7-4.5 21.5-6.5 5.8-2.1 14.8-5.5 20-7.7 5.2-2.2 15-6.9 21.8-10.4 6.7-3.5 15.8-8.6 20.2-11.4 7.6-4.7 8.1-4.9 10.8-3.6 1.5 0.7 5.6 2.3 9.2 3.4 3.6 1.1 9.4 2.3 13 2.7 4.5 0.4 8.9 0.2 14-0.9 4.1-0.9 10.9-3.2 15-5.2 5.5-2.7 9.6-5.8 15.1-11.3 5.5-5.5 8.6-9.6 11.3-15.1 2-4.1 4.4-11.1 5.3-15.5 1.3-6.5 1.4-9.5 0.6-16-0.7-5.3-2.2-10.5-4.5-15.5l-3.5-7.5c3-3.9 6.7-9.7 10.2-15.5 3.5-5.8 8.3-14.5 10.8-19.5 2.5-5 6.5-13.7 9-19.5 2.4-5.8 6.6-17 9.1-25 2.6-8 6-20.8 7.5-28.5 1.6-7.7 3.5-18.3 4.2-23.5 0.9-6 1.4-19.5 1.4-36.5 0-20.7-0.4-29.9-1.8-39.5-1-6.9-2.9-17.4-4.2-23.5-1.4-6.1-4.1-16.2-6.1-22.5-2-6.3-5.6-16.7-8.1-23-2.5-6.3-7.7-17.8-11.6-25.5-4-7.7-11.2-20.1-16.2-27.5-4.9-7.5-13-18.5-18-24.5-4.9-6-13.5-15.5-19-21-5.5-5.5-14-13.4-19-17.5-4.9-4.2-12.9-10.3-17.7-13.8-4.9-3.4-14.1-9.4-20.5-13.3-6.5-3.9-17.2-9.7-23.8-12.9-6.6-3.1-18.3-8.1-26-11-7.7-2.9-21.6-7.2-31-9.5-9.3-2.4-23.7-5.3-32-6.5-10.7-1.5-21.3-2.3-37-2.5-12.1-0.2-26 0-31 0.6z"/><path fill-rule="evenodd" class="a" d="m515.5 249.5c14.7 0.2 26.8 0.9 33.5 2 5.8 0.8 16.1 2.9 23 4.6 6.9 1.6 17.2 4.6 23 6.6 5.8 1.9 15 5.5 20.5 7.9 5.5 2.4 15 7.1 21 10.5 6 3.3 15.5 9.1 20.9 12.7 5.4 3.7 14 10.1 19 14.3 5 4.2 14.1 12.8 20.1 19 6.1 6.3 13.8 15 17.1 19.4 3.4 4.4 9.2 12.7 13 18.5 3.8 5.8 10.3 17.2 14.5 25.5 4.7 9.5 9.4 20.7 12.6 30.5 2.8 8.5 6 19.9 7.2 25.2 1.2 5.4 2.8 14.2 3.7 19.5 0.8 5.4 1.8 18.6 2.1 29.3 0.4 12.3 0.1 23.9-0.6 31.5-0.7 6.6-2.6 18.7-4.2 27-1.7 8.2-5.2 21.6-8 29.7-2.7 8.2-7.5 20.3-10.7 27-3.2 6.8-8.6 17-18.4 33.3l-6.1-1.8c-4.8-1.5-8.3-1.8-15.7-1.4-5.2 0.3-11.5 1.2-18.5 3.7l-41-40.9 4-5.3c2.3-2.9 5.5-7.6 7.2-10.3 1.7-2.8 5.3-9.3 7.9-14.5 2.5-5.2 6.4-14.7 8.5-21 2.1-6.3 4.5-15.1 5.4-19.5 0.9-4.4 2.1-13.9 2.7-21 0.9-9.9 0.9-16.3 0-26.5-0.7-7.4-2.1-17.3-3.1-22-1-4.7-3.3-12.8-5-18-1.8-5.2-5.9-14.9-9.2-21.5-3.3-6.6-9-16.3-12.7-21.5-3.7-5.2-12.3-15.2-19.2-22.1-8.9-8.9-15.7-14.6-23.5-19.8-6.1-4.1-14.2-8.9-18-10.9-3.9-1.9-10.9-5-15.8-6.8-4.8-1.9-13.3-4.6-19-6-5.6-1.4-14.9-3.2-20.7-4-5.8-0.7-15-1.4-20.5-1.4-5.5 0-13.8 0.5-18.5 1-4.7 0.6-11.9 1.8-16 2.6-4.1 0.9-11.8 2.9-17 4.6-5.2 1.7-13.8 5-19 7.5-5.2 2.4-12.2 6-15.5 8-3.3 2-10.3 6.8-15.5 10.7-5.2 3.9-13.2 10.8-17.7 15.3-4.6 4.6-11.6 12.7-15.6 18-4 5.4-9.3 13.4-11.9 17.8-2.6 4.4-6.5 12.3-8.7 17.5-2.2 5.2-5.1 13.8-6.5 19-1.4 5.2-3.2 14-4 19.5-0.8 5.5-1.8 14-2.1 19-0.4 4.9-0.2 14.6 0.5 21.5 0.6 6.9 2.2 17.7 3.6 24 1.4 6.3 4.2 15.8 6.1 21 1.9 5.2 5.9 14.2 8.9 20 3 5.8 8.4 14.5 11.9 19.5 3.6 4.9 9.5 12.3 13.2 16.4 3.8 4.1 10.2 10.4 14.3 13.9 4.1 3.5 11.1 8.8 15.5 11.7 4.4 3 12 7.4 17 9.9 4.9 2.6 12.4 5.9 16.5 7.5 4.1 1.6 13.1 4.3 20 6 6.9 1.7 17.2 3.5 23 4.1 5.8 0.5 14 1 18.2 1 4.3 0 12.9-0.7 19-1.5 6.2-0.8 15.8-2.6 21.3-4 5.5-1.4 13.8-3.9 18.5-5.7 4.7-1.7 12.1-4.9 16.5-7.1 4.4-2.2 12.2-6.7 26.7-16.2l39.3 39.6-2.2 5.7c-1.2 3.1-2.7 8.4-3.4 11.7-0.6 3.3-0.9 8.7-0.6 12 0.3 3.3 1.3 7.9 3.7 14.5l-4.8 3.1c-2.6 1.6-12.4 6.8-21.7 11.4-9.4 4.6-22.4 10.3-29 12.5-6.6 2.2-16.3 5.2-21.5 6.5-5.2 1.3-13.3 3-18 3.9-4.7 0.8-12.9 2-18.3 2.5-5.3 0.6-17.4 1.1-26.7 1.1-9.4 0-21.4-0.5-26.8-1.1-5.3-0.5-15.1-2.1-21.7-3.4-6.6-1.3-16.1-3.6-21-5-5-1.5-13.3-4.2-18.5-6.1-5.2-2-16.3-6.8-24.5-10.9-8.3-4-20.4-10.9-27-15.2-6.6-4.4-15.6-10.8-20-14.4-4.3-3.5-11.7-10-16.3-14.4-4.7-4.4-12.1-12.3-16.6-17.5-4.5-5.2-10-12-12.3-15-2.2-3-6.3-8.9-9-13-2.8-4.1-7.2-11.3-9.8-16-2.7-4.7-6.8-12.8-9.3-18-2.4-5.2-6.5-15.8-9.2-23.5-2.6-7.7-5.9-19.2-7.4-25.5-1.4-6.3-3.2-16-4.1-21.5-0.9-5.5-1.8-17.9-2.2-27.5-0.3-10.5-0.1-22.9 0.6-31 0.6-7.4 2.5-20.1 4.1-28.3 1.7-8.1 5-20.7 7.3-28 2.4-7.2 7.1-19.1 10.4-26.2 3.2-7.2 8.6-17.2 11.9-22.4 5-7.9 6.2-9.2 7.9-8.6 1.1 0.3 6.5 0.9 12 1.2 6.2 0.3 12.1 0.1 15.5-0.7 3-0.6 8.6-2.7 12.5-4.6 3.8-1.8 9.5-5.5 12.5-8.2 3-2.7 7.7-8.2 10.5-12.3 2.7-4.1 6-10.8 7.4-14.9 1.8-5.6 2.4-9.8 2.4-16.5 0.1-5.9-0.5-10.6-1.6-13.5-1.5-4.2-1.5-4.6 0.1-5.7 0.9-0.6 6.9-4.1 13.2-7.7 6.3-3.6 16.1-8.6 21.7-11.1 5.7-2.5 15.6-6.3 22-8.5 6.5-2.3 17.2-5.4 23.8-7 6.6-1.6 16.9-3.6 23-4.4 6-0.9 12.8-1.8 15-2 2.2-0.2 14.3-0.3 27-0.1zm-4.8 123.6c1.8 0 7.7 0.4 13 1 5.4 0.5 13.8 2.1 18.8 3.3 5 1.3 12.6 3.8 17 5.5 4.4 1.7 11.8 5.4 16.5 8.2 4.7 2.7 10.9 6.9 13.9 9.2 3 2.3 8.8 7.6 12.9 11.7 4.1 4.1 10.1 11.6 13.4 16.5 3.3 5 7.3 11.5 8.8 14.5 1.5 3 4 8.9 5.5 13 1.4 4.1 3.5 11.6 4.6 16.5 1.1 5 2.3 14.4 2.6 21 0.4 7.4 0.1 15.3-0.6 20.5-0.7 4.7-2.1 12.1-3.2 16.5-1.2 4.4-3.4 11.4-5 15.5-1.7 4.1-5.1 11.1-7.6 15.5-2.5 4.4-7.4 11.6-10.8 16-3.4 4.4-9.5 11-13.6 14.8-4.1 3.7-10.3 8.7-13.9 11.1-3.6 2.4-10.1 6.3-14.5 8.5-4.4 2.3-12.2 5.5-17.3 7.1-5 1.7-13.4 3.8-18.5 4.7-5.5 0.9-14.2 1.6-21.7 1.6-6.9-0.1-16.3-0.8-21-1.7-4.7-0.8-12.1-2.7-16.5-4.1-4.4-1.5-11.4-4.2-15.5-6.1-4.1-2-11.1-5.9-15.5-8.8-4.4-3-11.6-8.7-15.9-12.7-4.3-4.1-10.6-11.1-14-15.5-3.4-4.5-8.2-12.2-10.8-17-2.5-4.9-6-12.7-7.6-17.4-1.6-4.7-3.8-12.3-4.8-17-1.4-6.4-1.9-12.8-1.9-26 0-13.3 0.4-19.6 1.8-26 1-4.7 2.8-11.2 3.9-14.5 1.1-3.3 3.5-9.1 5.3-13 1.8-3.9 6-11.1 9.3-16 3.3-4.9 9.3-12.6 13.4-16.9 4-4.3 10.9-10.6 15.3-13.9 4.4-3.3 10-7.1 12.5-8.5 2.5-1.5 8.4-4.4 13.3-6.4 4.8-2.1 13.1-4.9 18.5-6.3 5.3-1.4 13.5-2.9 18.2-3.4 4.7-0.4 10-0.9 11.7-1z"/></g></svg>